<svg width="111" height="103" viewBox="0 0 111 103" fill="none" xmlns="http://www.w3.org/2000/svg">
<path d="M87.4211 57.2921H9.90821C8.03878 57.2921 6.48853 55.834 6.48853 54.0758C6.48853 52.3176 8.03878 50.8596 9.90821 50.8596H87.4211C89.2906 50.8596 90.8408 52.3176 90.8408 54.0758C90.8408 55.834 89.2906 57.2921 87.4211 57.2921Z" fill="#3772F0"/>
<path d="M70.1858 93.2712H27.1436C11.5042 93.2712 6.48853 88.5969 6.48853 74.0595V44.084C6.48853 32.5484 9.26997 25.73 23.4047 24.9581C24.5902 24.9152 25.8213 24.8723 27.1436 24.8723H70.1858C85.8251 24.8723 90.8408 29.5466 90.8408 44.084V74.7456C90.6584 88.7685 85.6428 93.2712 70.1858 93.2712ZM27.1436 31.3048C25.9125 31.3048 24.7726 31.3477 23.7239 31.3906C15.5622 31.8623 13.3279 33.4918 13.3279 44.084V74.0595C13.3279 85.0376 15.2431 86.8387 27.1436 86.8387H70.1858C81.9495 86.8387 83.8647 85.1234 84.0014 74.7027V44.084C84.0014 33.1059 82.0863 31.3048 70.1858 31.3048H27.1436Z" fill="#3772F0"/>
<path d="M87.4211 77.9619C86.5548 77.9619 85.6884 77.6617 85.0957 77.1042C84.4117 76.5039 84.0014 75.6462 84.0014 74.7456V44.084C84.0014 33.1059 82.0862 31.3048 70.1857 31.3048H27.1435C25.9124 31.3048 24.7725 31.3477 23.7238 31.3906C22.8119 31.4335 21.8998 31.0904 21.2159 30.49C20.5319 29.8897 20.1672 29.032 20.1672 28.1315C20.3496 14.1515 25.3653 9.64874 40.8223 9.64874H83.8645C99.5039 9.64874 104.52 14.323 104.52 28.8605V58.8359C104.52 70.3715 101.738 77.19 87.6034 77.9619C87.5578 77.9619 87.4667 77.9619 87.4211 77.9619ZM27.1435 24.8723H70.1857C85.8251 24.8723 90.8408 29.5466 90.8408 44.084V71.1863C96.1299 70.2858 97.6802 67.7128 97.6802 58.8359V28.8605C97.6802 17.8823 95.765 16.0812 83.8645 16.0812H40.8223C30.4264 16.0812 27.7363 17.4106 27.1435 24.8723Z" fill="#3772F0"/>
<path d="M32.525 79.5915H24.6824C22.813 79.5915 21.2627 78.1334 21.2627 76.3752C21.2627 74.617 22.813 73.159 24.6824 73.159H32.525C34.3944 73.159 35.9447 74.617 35.9447 76.3752C35.9447 78.1334 34.44 79.5915 32.525 79.5915Z" fill="#3772F0"/>
<path d="M58.0114 79.5915H42.3264C40.457 79.5915 38.9067 78.1334 38.9067 76.3752C38.9067 74.617 40.457 73.159 42.3264 73.159H58.0114C59.8808 73.159 61.4311 74.617 61.4311 76.3752C61.4311 78.1334 59.9264 79.5915 58.0114 79.5915Z" fill="#3772F0"/>
</svg>
