<svg width="111" height="103" viewBox="0 0 111 103" fill="none" xmlns="http://www.w3.org/2000/svg">
<path d="M50.2148 58.0641H43.3755C38.132 58.0641 33.8915 53.9473 33.8915 48.8442C33.8915 47.0859 35.4418 45.6279 37.3112 45.6279C39.1807 45.6279 40.7309 47.0859 40.7309 48.8442C40.7309 50.388 41.9164 51.6316 43.3755 51.6316H50.2148C51.2636 51.6316 52.0843 50.731 52.0843 49.6161C52.0843 48.1151 51.8107 48.0294 50.762 47.6863L39.7734 44.0841C35.8066 42.7976 33.8459 40.1817 33.8459 36.1078C33.8459 31.4764 37.7672 27.6598 42.5547 27.6598H49.3941C54.6376 27.6598 58.8781 31.7766 58.8781 36.8797C58.8781 38.6379 57.3278 40.096 55.4584 40.096C53.5889 40.096 52.0387 38.6379 52.0387 36.8797C52.0387 35.3359 50.8532 34.0923 49.3941 34.0923H42.5547C41.506 34.0923 40.6853 34.9928 40.6853 36.1078C40.6853 37.6087 40.9589 37.6945 42.0076 38.0376L52.9962 41.6398C56.963 42.9691 58.8781 45.585 58.8781 49.6161C58.9237 54.2903 55.0024 58.0641 50.2148 58.0641Z" fill="#3772F0"/>
<path d="M46.385 61.4947C44.5156 61.4947 42.9653 60.0367 42.9653 58.2785V55.1051C42.9653 53.3469 44.5156 51.8889 46.385 51.8889C48.2544 51.8889 49.8047 53.3469 49.8047 55.1051V58.2785C49.8047 60.0796 48.2544 61.4947 46.385 61.4947Z" fill="#3772F0"/>
<path d="M46.385 34.0494C44.5156 34.0494 42.9653 32.5913 42.9653 30.8331V27.4882C42.9653 25.73 44.5156 24.272 46.385 24.272C48.2544 24.272 49.8047 25.73 49.8047 27.4882V30.8331C49.8047 32.5913 48.2544 34.0494 46.385 34.0494Z" fill="#3772F0"/>
<path d="M46.3393 80.2776C24.3621 80.2776 6.48853 63.4673 6.48853 42.7975C6.48853 22.1278 24.3621 5.3175 46.3393 5.3175C68.3165 5.3175 86.19 22.1278 86.19 42.7975C86.19 63.4673 68.2709 80.2776 46.3393 80.2776ZM46.3393 11.7929C28.1465 11.7929 13.3279 25.73 13.3279 42.8404C13.3279 59.9509 28.1465 73.8451 46.3393 73.8451C64.532 73.8451 79.3507 59.908 79.3507 42.7975C79.3507 25.6871 64.532 11.7929 46.3393 11.7929Z" fill="#3772F0"/>
<path d="M78.3931 97.431C69.9579 97.431 62.0242 93.5715 57.1454 87.0532C56.0511 85.5952 56.4159 83.5797 57.9662 82.5505C59.5164 81.5213 61.6594 81.8643 62.7537 83.3224C66.3558 88.1253 72.1921 90.9556 78.3931 90.9556C88.9713 90.9556 97.5433 82.8935 97.5433 72.9446C97.5433 67.1553 94.534 61.6663 89.5185 58.2785C87.9682 57.2493 87.6491 55.2338 88.7434 53.7757C89.8377 52.3177 91.9807 52.0175 93.5309 53.0467C100.325 57.6352 104.383 65.0541 104.383 72.9446C104.383 86.4957 92.7558 97.431 78.3931 97.431Z" fill="#3772F0"/>
</svg>
